P2
# Created by GIMP version 2.10.14 PNM plug-in
100
100
255
138
138
138
138
138
138
138
138
138
138
138
138
138
138
138
138
138
138
138
138
138
138
138
138
138
138
138
138
138
138
138
138
138
138
138
138
138
138
138
138
138
138
138
138
138
138
138
138
138
138
138
138
138
138
138
138
138
138
138
138
138
138
138
138
138
138
138
138
138
138
138
138
138
138
138
138
138
138
138
138
138
138
138
138
138
138
138
138
138
138
138
138
138
138
138
138
138
138
138
138
138
138
138
138
138
138
138
138
138
138
138
138
138
138
138
138
138
138
138
138
138
138
138
138
138
138
138
138
138
138
138
138
138
138
138
138
138
138
138
138
138
138
138
138
138
138
138
138
138
138
138
138
138
138
138
138
138
138
138
138
138
138
138
138
138
138
138
138
138
138
138
138
138
138
138
138
138
138
138
138
138
138
138
138
138
138
138
138
138
138
138
138
138
138
138
138
138
138
138
138
138
138
138
138
138
138
138
138
138
138
138
138
138
138
138
138
138
138
138
138
138
138
138
138
138
138
138
138
138
138
138
138
138
138
138
138
138
138
138
138
138
138
138
138
138
138
138
138
138
138
138
138
138
138
138
138
138
138
138
138
138
138
138
138
138
138
138
138
138
138
138
138
138
138
138
138
138
138
138
138
138
138
138
138
138
138
138
138
138
138
138
138
138
138
138
138
138
138
138
138
138
138
138
138
138
138
138
138
138
138
138
138
138
138
138
138
138
138
138
138
138
138
138
138
138
138
138
138
138
138
138
138
138
138
138
138
138
138
138
138
138
138
138
138
138
138
138
138
138
138
138
138
138
138
138
138
138
138
138
138
138
138
138
138
138
138
138
138
138
138
138
138
138
138
138
138
138
138
138
138
138
138
138
138
138
138
138
138
138
138
138
138
138
138
138
138
138
138
138
138
138
138
138
138
138
138
138
138
138
138
138
138
138
138
138
138
138
138
138
138
138
138
138
138
138
138
138
138
138
138
138
138
138
138
138
138
138
138
138
138
138
138
138
138
138
138
138
138
138
138
138
138
138
138
138
138
138
138
138
138
138
138
138
138
138
138
138
138
138
138
138
138
138
138
138
138
138
138
138
138
138
138
138
138
138
138
138
138
138
138
138
138
138
138
138
138
138
138
138
138
138
138
138
138
138
138
138
138
138
138
138
138
138
138
138
138
138
138
138
138
138
138
138
138
138
138
138
138
138
138
138
138
138
138
138
138
138
138
138
138
254
249
240
226
221
231
210
203
193
172
164
172
210
228
221
230
250
250
252
138
138
138
138
138
138
138
138
138
138
138
138
138
138
138
138
138
138
138
138
138
138
138
138
138
138
138
138
138
138
138
138
138
138
138
138
138
138
138
138
138
138
138
138
138
138
138
138
138
138
138
138
138
138
138
138
138
138
138
138
138
138
138
138
138
138
138
138
138
138
138
138
138
138
138
138
138
138
138
138
247
189
147
103
62
40
17
15
12
12
12
12
15
17
30
52
71
113
152
175
238
248
138
138
138
138
138
138
138
138
138
138
138
138
138
138
138
138
138
138
138
138
138
138
138
138
138
138
138
138
138
138
138
138
138
138
138
138
138
138
138
138
138
138
138
138
138
138
138
138
138
138
138
138
138
138
138
138
138
138
138
138
138
138
138
138
138
138
138
138
138
138
138
138
138
138
138
253
254
248
145
24
8
2
2
2
2
6
6
2
6
8
10
12
10
6
2
2
8
24
34
131
230
254
254
138
138
138
138
138
138
138
138
138
138
138
138
138
138
138
138
138
138
138
138
138
138
138
138
138
138
138
138
138
138
138
138
138
138
138
138
138
138
138
138
138
138
138
138
138
138
138
138
138
138
138
138
138
138
138
138
138
138
138
138
138
138
138
138
138
138
138
138
254
254
249
247
248
217
84
2
2
6
10
8
12
10
10
10
10
12
12
15
15
15
15
17
17
15
8
6
2
34
154
238
250
252
254
138
138
138
138
138
138
138
138
138
138
138
138
138
138
138
138
138
138
138
138
138
138
138
138
138
138
138
138
138
138
138
138
138
138
138
138
138
138
138
138
138
138
138
138
138
138
138
138
138
138
138
138
138
138
138
138
138
138
138
138
138
138
138
254
253
248
242
243
246
218
76
2
2
6
8
8
6
8
10
10
10
8
12
15
15
15
15
15
17
15
15
15
15
15
2
8
108
230
240
234
247
253
138
138
138
138
138
138
138
138
138
138
138
138
138
138
138
138
138
138
138
138
138
138
138
138
138
138
138
138
138
138
138
138
138
138
138
138
138
138
138
138
138
138
138
138
138
138
138
138
138
138
138
138
138
138
138
138
138
138
138
138
252
245
242
241
243
243
237
138
30
34
50
46
40
30
18
8
6
6
8
12
14
17
18
18
17
18
18
15
15
14
10
6
8
2
12
131
242
235
223
232
245
252
254
138
138
138
138
138
138
138
138
138
138
138
138
138
138
138
138
138
138
138
138
138
138
138
138
138
138
138
138
138
138
138
138
138
138
138
138
138
138
138
138
138
138
138
138
138
138
138
138
138
138
138
138
138
138
138
254
247
242
243
243
241
240
241
210
131
119
147
162
156
147
129
103
79
62
46
24
15
18
18
17
17
18
15
12
8
5
6
10
24
62
95
113
138
221
242
230
223
219
226
242
252
138
138
138
138
138
138
138
138
138
138
138
138
138
138
138
138
138
138
138
138
138
138
138
138
138
138
138
138
138
138
138
138
138
138
138
138
138
138
138
138
138
138
138
138
138
138
138
138
138
138
138
138
138
252
246
241
243
243
242
240
240
241
229
217
227
228
226
217
202
186
172
152
136
129
107
52
15
15
17
17
8
2
2
5
34
74
124
172
211
232
240
231
219
221
223
225
221
214
210
228
247
254
138
138
138
138
138
138
138
138
138
138
138
138
138
138
138
138
138
138
138
138
138
138
138
138
138
138
138
138
138
138
138
138
138
138
138
138
138
138
138
138
138
138
138
138
138
138
138
138
138
254
249
243
243
245
244
242
241
242
245
245
247
254
249
247
249
245
243
235
223
202
175
144
107
46
6
12
10
2
8
40
87
147
197
228
247
251
243
237
231
227
221
217
217
219
219
214
209
206
213
234
250
138
138
138
138
138
138
138
138
138
138
138
138
138
138
138
138
138
138
138
138
138
138
138
138
138
138
138
138
138
138
138
138
138
138
138
138
138
138
138
138
138
138
138
138
138
138
138
252
245
242
243
245
243
241
242
245
242
245
242
243
241
242
241
241
244
245
246
246
246
245
230
188
116
40
2
8
62
138
204
241
254
249
243
237
231
227
225
223
221
221
219
217
217
218
215
209
202
199
202
216
243
254
138
138
138
138
138
138
138
138
138
138
138
138
138
138
138
138
138
138
138
138
138
138
138
138
138
138
138
138
138
138
138
138
138
138
138
138
138
138
138
138
138
138
138
138
250
243
242
245
245
242
242
245
245
243
242
245
242
243
243
243
243
245
247
246
246
245
243
241
243
247
241
177
84
116
216
253
251
243
237
234
230
229
227
225
225
225
221
219
218
217
217
215
215
211
204
193
191
193
205
236
253
138
138
138
138
138
138
138
138
138
138
138
138
138
138
138
138
138
138
138
138
138
138
138
138
138
138
138
138
138
138
138
138
138
138
138
138
138
138
138
138
138
138
250
245
243
245
243
241
242
244
245
245
243
242
244
245
247
249
249
250
252
252
251
250
249
245
240
235
234
237
237
210
234
254
240
234
232
231
230
229
227
225
225
221
221
221
217
215
214
214
213
213
209
204
195
186
183
191
198
230
250
138
138
138
138
138
138
138
138
138
138
138
138
138
138
138
138
138
138
138
138
138
138
138
138
138
138
138
138
138
138
138
138
138
138
138
138
138
138
138
138
250
242
245
245
240
241
245
245
245
243
243
245
245
249
253
253
252
252
252
252
250
249
247
249
243
238
237
234
234
225
221
243
245
234
231
229
229
227
225
225
223
221
219
218
217
214
214
214
210
210
210
206
202
197
189
183
183
185
191
219
249
138
138
138
138
138
138
138
138
138
138
138
138
138
138
138
138
138
138
138
138
138
138
138
138
138
138
138
138
138
138
138
138
138
138
138
138
138
138
250
242
241
242
241
240
245
245
245
245
243
245
250
253
253
253
253
252
250
250
249
248
248
248
247
241
235
235
234
234
221
211
238
245
232
229
227
226
225
223
221
221
219
217
217
215
213
211
211
210
207
206
204
201
197
189
183
179
175
177
188
210
245
138
138
138
138
138
138
138
138
138
138
138
138
138
138
138
138
138
138
138
138
138
138
138
138
138
138
138
138
138
138
138
138
138
138
138
138
250
243
242
242
240
241
245
243
245
244
243
248
253
253
253
253
252
252
252
252
250
248
248
248
248
245
240
234
235
232
231
218
207
235
244
231
227
226
225
225
221
221
221
218
215
215
214
210
210
210
207
204
202
202
200
195
191
183
179
172
172
175
186
206
242
138
138
138
138
138
138
138
138
138
138
138
138
138
138
138
138
138
138
138
138
138
138
138
138
138
138
138
138
138
138
138
138
138
138
250
242
243
243
238
238
242
245
245
242
244
247
253
254
253
253
252
251
251
251
250
249
248
248
248
247
242
236
234
234
231
229
215
204
236
243
230
226
225
223
221
219
219
218
217
215
214
211
210
210
207
206
204
201
201
198
193
191
185
178
175
168
162
168
183
203
240
138
138
138
138
138
138
138
138
138
138
138
138
138
138
138
138
138
138
138
138
138
138
138
138
138
138
138
138
138
138
138
138
250
245
243
247
236
234
244
245
243
242
243
247
254
254
253
253
252
252
251
251
250
248
248
248
249
248
245
238
234
234
232
231
229
211
198
234
242
226
223
221
221
218
217
215
215
215
214
211
210
210
209
206
204
202
200
198
197
193
189
186
180
177
172
152
147
161
177
201
245
138
138
138
138
138
138
138
138
138
138
138
138
138
138
138
138
138
138
138
138
138
138
138
138
138
138
138
138
138
138
250
245
247
245
221
210
236
245
243
243
243
246
253
254
253
253
252
250
252
250
251
249
247
248
247
246
245
240
234
232
231
230
228
226
210
195
234
240
223
219
221
218
215
214
214
213
213
210
210
209
207
206
204
202
202
198
197
195
190
188
183
181
179
175
165
136
131
147
162
202
250
138
138
138
138
138
138
138
138
138
138
138
138
138
138
138
138
138
138
138
138
138
138
138
138
138
138
138
138
253
245
243
209
154
103
170
244
245
242
242
245
252
254
253
252
252
252
251
250
249
249
249
246
246
245
242
238
234
231
229
229
229
226
225
207
195
231
238
221
218
217
215
214
214
214
210
210
209
209
206
204
204
201
201
200
198
193
190
188
185
183
181
179
175
173
127
62
90
123
145
205
250
138
138
138
138
138
138
138
138
138
138
138
138
138
138
138
138
138
138
138
138
138
138
138
138
138
138
253
245
218
152
62
30
69
189
247
242
242
243
250
254
252
252
252
252
252
252
250
249
248
246
248
245
238
235
232
230
229
229
229
226
223
221
204
190
227
234
221
217
214
214
213
211
210
210
210
207
206
204
204
202
200
198
198
195
190
188
187
183
181
181
179
175
175
143
40
12
50
95
136
212
253
138
138
138
138
138
138
138
138
138
138
138
138
138
138
138
138
138
138
138
138
138
138
138
138
254
246
191
95
30
2
34
145
221
242
240
243
249
251
253
252
252
252
252
252
250
249
248
248
248
242
236
232
232
230
230
229
226
225
223
221
218
200
186
223
229
217
214
213
211
210
209
210
209
207
206
204
202
201
200
198
197
195
193
189
185
181
180
177
177
175
173
169
157
62
2
6
30
74
136
234
254
138
138
138
138
138
138
138
138
138
138
138
138
138
138
138
138
138
138
138
138
138
138
138
250
175
57
12
15
6
74
175
226
243
242
249
252
252
250
253
253
252
252
250
249
248
248
247
242
234
231
230
231
230
229
229
225
221
219
217
215
196
181
221
227
213
211
213
210
210
209
209
206
206
204
202
202
200
198
198
197
193
189
185
181
177
177
175
173
172
170
167
159
84
2
6
6
12
71
180
252
138
138
138
138
138
138
138
138
138
138
138
138
138
138
138
138
138
138
138
138
138
138
254
218
57
10
18
18
6
103
175
225
245
248
250
250
250
250
250
250
250
249
249
249
249
246
240
234
231
230
230
230
229
229
225
221
219
215
213
210
189
175
214
225
213
211
210
210
210
207
206
204
204
202
201
198
198
198
195
193
189
185
181
179
175
172
170
170
168
168
164
160
100
10
2
12
2
30
108
231
254
138
138
138
138
138
138
138
138
138
138
138
138
138
138
138
138
138
138
138
138
138
247
103
6
18
18
15
17
129
180
225
247
251
250
249
249
249
249
249
248
247
247
248
246
240
234
231
230
229
229
229
226
225
221
221
217
214
210
201
175
160
207
221
212
212
211
210
210
206
202
202
201
200
198
195
195
193
190
188
185
183
179
175
170
170
168
165
164
162
160
157
116
18
2
10
8
8
57
152
247
138
138
138
138
138
138
138
138
138
138
138
138
138
138
138
138
138
138
138
138
254
187
24
14
18
18
12
17
143
181
223
247
249
248
248
248
248
248
248
248
246
247
244
240
234
231
230
228
228
227
226
223
221
221
219
218
211
201
177
143
136
185
215
216
216
215
210
207
204
200
200
198
197
195
193
193
190
186
183
181
179
175
172
169
168
164
162
160
157
157
155
119
24
2
5
6
2
34
97
204
254
138
138
138
138
138
138
138
138
138
138
138
138
138
138
138
138
138
138
138
241
90
6
15
18
17
8
24
154
181
225
247
248
248
247
247
247
248
247
247
245
245
238
232
230
230
228
226
226
226
225
221
221
219
219
214
201
169
127
100
82
113
180
205
209
212
210
204
200
197
197
195
195
193
191
189
185
183
183
179
175
173
169
168
164
160
160
156
156
153
155
123
30
2
5
6
2
12
74
143
245
138
138
138
138
138
138
138
138
138
138
138
138
138
138
138
138
138
138
254
195
34
10
18
18
18
6
30
158
172
221
247
245
245
246
246
246
246
246
247
245
238
232
231
230
230
226
225
225
225
223
223
221
219
213
191
151
111
100
92
40
24
76
129
172
191
198
200
197
195
193
193
193
191
189
185
181
183
180
175
173
169
168
165
161
157
156
154
154
151
151
127
30
2
5
6
5
2
50
113
204
254
138
138
138
138
138
138
138
138
138
138
138
138
138
138
138
138
138
249
111
14
18
18
18
17
2
34
162
158
212
240
236
238
243
247
246
245
246
245
239
231
230
230
228
226
225
223
223
221
221
221
218
210
175
123
95
100
100
52
6
2
2
24
82
127
170
183
189
191
191
189
189
188
185
181
179
179
175
172
169
167
164
161
157
154
152
152
151
147
151
127
30
2
5
6
6
2
24
92
152
245
138
138
138
138
138
138
138
138
138
138
138
138
138
138
138
138
254
217
52
10
18
18
18
15
5
17
129
138
201
238
236
234
236
243
246
245
243
242
234
228
228
228
226
225
223
221
221
219
219
215
197
153
107
95
95
67
24
2
2
6
2
2
2
34
95
144
172
185
186
185
183
183
180
177
175
175
172
169
165
165
165
159
154
151
149
149
148
146
147
123
30
2
5
6
10
2
8
69
129
209
254
138
138
138
138
138
138
138
138
138
138
138
138
138
138
138
254
161
24
14
15
17
15
12
10
2
69
103
185
236
235
235
234
235
242
245
245
238
230
228
228
226
223
221
221
218
219
219
212
187
139
100
100
90
40
2
2
2
5
2
5
6
2
2
15
74
131
162
175
180
180
179
175
173
172
169
167
165
161
164
164
157
154
151
149
148
147
145
145
119
24
2
8
10
8
2
6
52
111
168
249
138
138
138
138
138
138
138
138
138
138
138
138
138
138
138
243
100
14
18
18
15
12
10
10
5
24
46
154
232
231
234
235
234
234
240
241
234
230
226
225
221
221
219
219
218
218
210
177
127
100
103
67
17
2
2
2
5
5
6
6
2
5
2
2
10
50
103
147
168
173
172
171
168
167
165
165
163
161
160
159
154
151
149
147
144
146
145
149
107
10
6
12
12
6
2
6
40
92
138
232
138
138
138
138
138
138
138
138
138
138
138
138
138
138
254
210
57
14
18
15
17
12
6
6
6
8
2
92
209
219
221
226
229
229
231
234
231
229
225
221
219
217
215
217
215
204
168
116
103
100
46
2
2
2
5
5
5
5
5
5
5
5
5
2
2
2
34
87
140
160
164
164
161
161
164
164
163
161
159
154
146
145
147
147
148
149
151
145
67
2
12
15
12
10
2
6
30
82
127
202
254
138
138
138
138
138
138
138
138
138
138
138
138
138
253
164
30
14
14
18
12
8
6
6
10
8
2
57
198
219
207
200
204
209
215
221
226
225
223
218
213
210
213
211
196
159
107
103
87
24
2
2
2
2
2
5
5
5
2
5
5
5
6
6
5
2
2
18
69
123
151
153
148
151
157
160
157
155
151
146
145
147
147
144
140
134
131
116
34
2
10
18
12
12
5
6
17
57
113
175
247
138
138
138
138
138
138
138
138
138
138
138
138
138
245
107
14
14
18
18
12
8
8
10
6
2
46
181
242
244
235
223
211
200
193
193
198
203
206
204
199
199
199
187
149
100
90
71
8
2
2
2
5
2
2
5
6
2
5
5
5
5
6
2
6
6
5
2
8
46
100
136
143
143
147
151
147
147
145
143
143
134
131
127
127
134
145
147
111
40
2
12
15
12
8
6
24
40
92
152
238
138
138
138
138
138
138
138
138
138
138
138
138
254
223
74
6
15
15
18
12
6
8
8
2
40
193
250
237
238
240
243
241
240
230
215
197
181
177
175
172
175
171
143
90
62
40
2
2
2
2
2
2
5
5
5
5
5
5
5
5
5
2
2
2
6
6
5
2
2
24
79
127
143
143
143
139
134
131
127
131
131
140
147
153
157
155
153
153
131
50
2
14
12
12
12
24
30
74
129
221
254
138
138
138
138
138
138
138
138
138
138
138
252
196
46
6
12
15
15
6
8
8
2
30
172
246
235
229
229
229
229
229
231
237
241
234
223
205
181
161
151
134
95
52
15
2
2
5
5
2
2
2
5
2
5
5
5
5
5
5
5
6
2
6
5
6
2
6
2
6
18
74
124
131
127
127
134
140
151
153
153
151
149
149
147
146
147
145
154
123
34
2
12
12
18
24
24
57
119
204
253
138
138
138
138
138
138
138
138
138
138
138
250
167
30
6
12
15
12
6
8
2
12
145
242
235
230
229
229
225
225
221
221
221
221
221
225
225
223
212
160
74
34
14
2
2
2
2
2
2
2
5
5
5
5
5
5
5
5
5
5
5
5
5
6
6
2
6
5
6
5
18
90
149
164
167
163
155
151
143
143
145
147
146
147
146
147
147
147
151
103
18
5
12
15
24
24
46
103
175
247
138
138
138
138
138
138
138
138
138
138
254
243
143
18
6
12
15
8
6
5
2
97
234
238
229
227
226
226
225
221
221
218
217
214
210
207
207
209
219
196
84
10
2
5
2
2
2
2
2
2
2
5
6
5
5
5
5
5
5
5
5
2
5
5
6
2
6
6
2
6
12
107
203
179
155
144
140
140
140
143
146
147
146
147
146
147
147
147
151
145
74
6
10
14
18
24
34
92
158
232
138
138
138
138
138
138
138
138
138
138
254
240
123
10
6
12
12
10
8
2
40
199
242
228
229
227
226
223
221
221
221
217
214
210
207
204
203
202
204
199
116
18
2
2
2
6
2
2
2
2
2
5
5
2
5
5
5
5
2
2
5
5
5
5
2
6
2
6
2
6
18
121
188
155
140
136
140
140
145
145
146
147
147
146
149
149
149
147
149
154
131
40
6
10
18
30
30
79
138
240
138
138
138
138
138
138
138
138
138
138
251
225
103
5
10
12
12
10
2
12
147
240
230
226
226
225
225
223
221
219
218
215
213
210
207
205
203
203
202
196
134
30
2
2
2
2
2
2
2
2
2
2
2
2
2
5
5
5
5
5
5
5
5
5
5
6
5
5
2
6
30
131
168
140
139
140
140
140
145
145
147
147
147
147
149
149
149
149
149
151
157
103
18
6
18
24
24
69
129
219
254
138
138
138
138
138
138
138
138
138
247
219
100
2
10
12
12
5
2
82
221
236
225
225
225
221
221
221
219
218
217
214
211
210
207
205
204
203
202
195
153
52
2
2
2
2
2
2
2
2
2
2
2
2
2
5
5
5
2
2
5
5
5
5
5
5
2
5
2
6
50
140
154
139
140
143
140
140
145
145
146
147
147
149
149
149
149
149
149
153
155
147
67
6
14
24
24
57
129
186
247
138
138
138
138
138
138
138
138
138
245
229
131
5
5
12
10
2
34
175
240
226
225
223
221
219
221
221
218
217
215
214
211
209
207
205
204
203
201
196
169
76
5
2
2
2
2
2
2
2
2
2
2
2
2
2
2
2
2
2
5
2
5
5
5
5
2
5
2
6
69
148
146
139
140
143
140
140
145
145
146
147
147
149
149
149
149
149
151
151
151
159
119
30
6
24
24
50
121
183
249
138
138
138
138
138
138
138
138
138
246
237
196
40
2
10
6
2
100
228
232
223
223
221
219
218
218
217
215
215
214
213
210
207
207
207
203
201
200
196
177
100
14
2
2
2
2
2
2
2
2
6
2
2
2
2
2
5
5
2
2
2
5
5
2
2
2
2
2
15
95
151
140
139
143
140
143
143
146
145
143
147
149
149
149
149
153
153
153
151
153
157
155
74
6
24
30
57
108
172
253
138
138
138
138
138
138
138
138
138
247
234
240
140
10
2
2
30
178
240
225
221
221
219
218
217
215
214
213
213
211
209
207
206
206
204
201
201
197
195
185
123
24
2
2
2
2
2
2
2
2
2
2
2
2
2
2
2
2
2
2
2
2
2
2
2
2
2
2
34
123
151
139
140
140
140
143
143
146
145
145
149
151
151
149
151
154
153
151
151
154
151
160
123
24
24
62
76
100
170
252
138
138
138
138
138
138
138
138
138
250
229
241
237
123
15
5
97
227
231
221
219
219
218
216
215
214
214
213
211
210
209
207
204
204
204
200
197
195
195
185
145
46
2
2
2
2
2
2
2
2
2
2
2
2
2
2
2
2
2
2
2
2
2
2
2
2
2
2
62
143
146
139
143
143
143
145
145
145
145
145
149
151
153
151
151
153
153
154
154
154
149
157
154
67
30
69
90
116
181
250
138
138
138
138
138
138
138
138
138
252
227
225
245
235
149
79
154
234
225
221
218
218
218
214
214
214
214
211
210
210
207
206
204
203
201
197
195
193
189
181
159
74
6
2
2
2
2
2
2
2
2
2
2
2
2
2
2
2
2
2
2
2
2
2
2
2
2
15
90
151
143
143
145
146
145
145
145
146
145
147
151
153
151
153
155
154
154
155
155
154
153
153
164
107
40
76
111
144
188
249
138
138
138
138
138
138
138
138
138
252
226
221
230
243
241
195
202
226
221
219
217
216
217
214
214
213
211
210
209
209
206
205
203
202
199
196
193
191
185
183
169
100
14
2
2
2
2
2
2
2
2
2
2
2
2
2
2
2
2
2
2
2
2
2
2
2
2
30
116
151
143
145
147
146
145
145
145
147
149
149
151
151
151
153
154
154
154
155
154
155
154
153
164
134
84
116
144
162
190
249
138
138
138
138
138
138
138
138
138
252
225
219
225
229
241
243
231
223
221
219
217
215
214
214
213
210
210
210
209
206
204
201
201
197
197
196
193
188
183
181
173
131
34
2
2
2
2
2
2
2
2
2
2
2
2
2
5
5
2
2
2
2
2
2
2
2
2
57
140
149
145
145
147
149
147
146
147
149
149
149
151
153
154
154
154
154
156
157
157
157
154
155
159
151
131
143
160
168
193
250
138
138
138
138
138
138
138
138
138
252
221
215
221
226
229
229
226
221
219
218
215
215
213
213
211
209
207
207
207
204
203
200
198
195
195
193
191
186
183
179
173
151
67
2
2
2
2
2
2
2
2
2
2
2
2
2
5
2
2
2
2
2
2
2
2
2
12
90
149
146
145
146
149
147
149
146
149
149
149
149
151
154
155
155
154
156
157
157
157
156
156
154
159
155
143
154
167
170
195
252
138
138
138
138
138
138
138
138
138
253
225
214
219
223
225
223
221
221
219
215
214
214
211
211
210
209
206
206
205
203
200
198
196
193
193
191
187
183
181
177
171
160
100
14
2
2
2
2
2
2
2
2
2
2
2
2
2
2
2
2
2
2
2
2
2
2
34
116
151
145
145
147
147
147
149
149
149
149
149
151
154
155
154
157
157
157
157
157
157
160
156
155
157
153
144
161
170
170
202
254
138
138
138
138
138
138
138
138
138
254
231
214
218
221
223
219
219
221
219
215
213
211
210
209
209
207
204
203
203
202
200
196
193
193
191
188
183
180
177
173
169
160
131
34
2
2
2
2
2
2
2
2
2
2
2
2
2
2
2
2
2
2
2
2
2
5
62
139
147
145
147
147
149
149
151
149
151
153
151
151
154
157
157
157
157
159
160
159
157
160
160
157
159
153
151
168
170
172
209
252
138
138
138
138
138
138
138
138
138
254
235
213
215
219
221
217
215
219
218
214
213
211
210
209
207
204
203
201
201
200
197
197
193
191
189
185
181
179
175
171
167
159
149
67
2
2
2
2
2
2
2
2
2
2
2
2
2
2
2
5
2
2
2
2
2
15
92
149
147
147
149
149
149
149
149
149
149
153
153
151
154
157
156
157
159
160
159
160
159
160
159
156
160
151
156
172
170
177
218
252
138
138
138
138
138
138
138
138
138
254
240
211
213
217
219
214
211
217
215
213
211
210
209
206
206
204
201
200
197
196
197
195
193
191
188
185
181
177
173
171
165
157
155
100
24
2
2
2
2
2
2
2
2
2
2
2
2
2
2
2
2
2
2
2
5
40
119
151
147
149
149
149
151
153
153
151
153
153
153
153
155
157
157
157
160
161
160
159
160
161
160
159
161
153
162
172
172
177
231
254
138
138
138
138
138
138
138
138
138
138
248
213
211
215
218
214
209
215
214
211
210
210
207
204
204
203
200
198
196
195
193
193
191
188
187
183
179
177
173
169
165
159
153
134
62
18
6
2
2
2
2
2
2
2
2
2
2
2
2
2
2
5
6
12
18
71
144
153
151
151
149
151
153
154
153
153
153
154
154
154
157
159
159
160
160
160
161
161
161
161
161
163
159
151
164
168
172
181
243
138
138
138
138
138
138
138
138
138
138
138
250
221
209
213
214
213
207
211
211
209
207
206
205
203
202
200
197
196
197
195
191
190
188
185
185
181
177
173
173
171
167
160
153
146
111
62
40
18
14
14
12
12
12
10
10
10
10
10
12
14
14
15
18
18
34
116
157
153
151
153
153
153
154
153
154
155
155
157
155
154
155
160
161
161
161
161
163
164
163
162
161
163
156
156
168
170
175
189
249
138
138
138
138
138
138
138
138
138
138
138
253
231
209
210
213
211
205
207
209
206
205
204
202
202
200
200
197
195
193
193
189
189
188
183
183
179
175
175
173
171
167
163
155
153
139
145
134
95
74
67
62
57
57
52
52
52
52
52
57
57
62
62
67
74
82
127
159
155
151
153
153
153
154
154
154
157
157
155
157
155
159
161
163
161
161
161
165
164
165
164
164
163
155
161
170
172
175
210
252
138
138
138
138
138
138
138
138
138
138
138
138
243
211
207
210
210
204
203
206
204
203
204
203
201
200
196
195
195
193
189
189
186
185
183
181
177
175
175
173
171
167
159
157
153
145
187
181
169
159
151
147
143
143
139
134
131
131
131
131
134
131
134
134
134
131
123
147
157
151
153
153
154
155
157
157
157
157
155
157
159
161
163
164
163
164
164
163
165
165
165
165
165
157
167
173
175
177
226
254
138
138
138
138
138
138
138
138
138
138
138
138
252
221
209
209
210
204
201
207
204
203
203
201
199
197
197
195
193
193
191
188
185
185
181
181
177
175
175
173
171
167
160
167
140
159
175
163
160
159
157
157
157
157
157
153
153
153
153
157
155
153
153
153
151
145
139
139
159
159
154
155
155
157
157
157
157
159
159
159
160
161
163
164
164
164
164
165
165
168
169
171
161
159
172
175
175
187
240
138
138
138
138
138
138
138
138
138
138
138
138
138
254
234
210
206
206
202
197
203
203
200
200
197
197
197
196
193
193
191
188
185
183
183
181
179
177
175
173
173
171
163
171
159
147
169
160
159
157
155
155
155
157
157
157
157
157
159
159
160
160
159
160
160
157
153
151
143
151
169
157
155
157
157
159
160
160
160
161
161
163
164
165
165
165
167
169
171
173
173
175
170
161
167
175
175
175
201
249
138
138
138
138
138
138
138
138
138
138
138
138
138
138
245
218
210
205
202
193
197
201
197
197
197
196
195
193
191
190
188
186
185
183
181
179
179
177
177
173
173
165
167
171
149
165
163
157
159
157
157
157
157
159
160
159
160
161
160
160
160
161
161
163
163
159
159
157
151
145
165
167
159
160
160
164
164
163
164
167
167
169
171
169
169
172
173
173
175
175
175
175
169
164
173
177
177
178
221
254
138
138
138
138
138
138
138
138
138
138
138
138
138
138
252
226
214
211
207
198
193
199
197
196
197
196
193
193
191
189
188
185
183
183
183
179
177
177
175
172
169
169
177
157
157
167
161
159
159
161
160
160
160
160
160
163
161
163
161
161
160
160
161
163
163
161
161
163
157
149
155
173
165
161
164
167
167
169
169
170
172
172
173
172
172
173
175
177
175
175
175
177
168
169
177
177
179
186
240
138
138
138
138
138
138
138
138
138
138
138
138
138
138
138
254
234
215
215
214
204
191
201
201
196
195
195
195
191
189
189
188
188
187
185
187
185
179
177
175
171
171
180
171
153
167
165
164
164
163
164
163
163
163
161
163
163
163
163
163
163
164
164
164
163
164
164
164
164
161
157
151
167
175
165
168
171
172
172
172
173
175
173
173
173
175
175
177
177
177
179
179
177
169
179
181
178
179
202
252
138
138
138
138
138
138
138
138
138
138
138
138
138
138
138
138
245
215
215
213
209
196
195
205
201
197
195
195
191
190
191
191
191
191
187
187
185
181
181
177
173
180
181
155
163
171
165
167
167
165
165
164
163
164
163
164
164
164
163
164
164
165
165
165
165
165
165
164
165
164
163
154
157
179
175
172
172
173
172
172
173
175
173
173
175
177
177
177
177
179
179
181
175
175
183
181
181
181
228
254
138
138
138
138
138
138
138
138
138
138
138
138
138
138
138
138
252
221
215
214
210
203
188
199
211
204
200
197
197
197
195
193
193
191
188
187
185
187
185
181
181
187
165
157
169
171
172
169
167
167
165
165
165
165
165
165
165
164
164
165
164
165
165
165
165
167
167
167
167
171
169
165
153
165
183
175
173
173
175
173
173
173
175
175
175
177
177
179
179
185
191
183
175
181
183
181
181
193
247
138
138
138
138
138
138
138
138
138
138
138
138
138
138
138
138
138
254
235
214
214
209
205
195
185
195
211
210
202
197
196
197
195
191
191
190
187
187
188
185
183
190
179
157
169
177
179
181
175
173
169
167
168
169
167
167
167
167
167
167
167
165
167
167
165
167
172
175
177
177
177
177
173
163
155
177
181
175
175
175
175
175
177
177
177
177
175
179
183
193
188
168
172
181
181
181
181
183
221
253
138
138
138
138
138
138
138
138
138
138
138
138
138
138
138
138
138
138
245
217
213
211
206
203
167
90
127
186
209
209
200
195
193
191
191
188
187
187
187
187
188
187
163
169
180
183
183
181
181
179
177
175
177
173
173
173
173
173
173
171
173
173
173
173
173
175
177
179
180
180
177
177
177
173
159
163
183
181
177
177
177
177
177
175
175
181
187
193
187
160
90
57
147
188
181
181
183
193
243
138
138
138
138
138
138
138
138
138
138
138
138
138
138
138
138
138
138
138
253
231
213
213
210
210
148
18
12
57
121
172
204
210
203
195
191
188
187
187
187
188
195
173
163
181
185
181
181
183
183
181
181
181
183
181
179
177
177
179
177
177
177
180
179
179
179
179
181
179
181
180
180
180
180
177
171
157
173
188
181
179
179
179
181
187
191
191
172
136
95
46
6
15
124
189
185
185
185
218
252
138
138
138
138
138
138
138
138
138
138
138
138
138
138
138
138
138
138
138
138
247
218
214
212
207
131
57
50
30
24
40
92
147
183
203
206
203
196
193
195
199
187
164
177
185
185
183
183
183
183
183
183
183
183
183
181
180
180
181
180
180
179
180
181
180
181
181
180
179
181
181
180
181
181
180
179
165
165
191
199
196
195
196
191
175
147
100
57
30
18
24
34
40
108
188
188
188
191
240
138
138
138
138
138
138
138
138
138
138
138
138
138
138
138
138
138
138
138
138
138
253
228
214
213
204
143
92
90
82
62
40
24
30
52
82
124
160
181
199
210
201
171
171
188
185
185
185
185
183
183
183
183
183
183
183
183
181
181
181
181
181
181
181
181
183
183
179
181
183
183
183
181
181
181
181
183
179
168
165
175
172
151
116
82
57
34
18
24
30
40
52
52
52
108
185
191
190
218
252
138
138
138
138
138
138
138
138
138
138
138
138
138
138
138
138
138
138
138
138
138
138
247
217
213
206
151
100
92
92
92
87
71
52
40
30
24
30
46
71
87
90
141
191
191
187
187
187
187
185
185
183
183
183
183
183
183
183
183
183
181
181
181
183
183
183
183
183
183
183
183
183
183
183
183
185
183
188
173
82
34
34
18
14
15
18
30
40
40
50
52
57
52
62
116
185
193
198
243
138
138
138
138
138
138
138
138
138
138
138
138
138
138
138
138
138
138
138
138
138
138
138
254
235
214
210
160
108
97
92
92
90
84
82
76
71
62
50
34
18
2
2
111
200
191
188
188
188
187
188
188
187
185
185
185
185
185
185
185
185
183
183
185
185
183
183
183
183
183
183
183
183
185
185
183
185
183
193
156
34
2
12
24
30
34
34
40
40
46
50
52
57
57
69
124
188
195
225
254
138
138
138
138
138
138
138
138
138
138
138
138
138
138
138
138
138
138
138
138
138
138
138
138
250
225
212
172
116
103
100
97
90
87
84
79
74
74
71
67
62
46
8
62
185
197
188
188
188
188
188
187
187
187
187
187
187
187
187
187
187
187
185
185
185
185
183
183
185
185
183
185
185
185
185
185
183
187
195
108
10
30
34
34
34
30
34
34
40
46
52
57
62
62
79
141
191
211
249
138
138
138
138
138
138
138
138
138
138
138
138
138
138
138
138
138
138
138
138
138
138
138
138
138
138
245
218
185
131
111
103
100
97
90
84
82
76
74
71
69
67
62
40
18
131
204
191
191
189
191
188
188
188
188
187
187
187
188
187
187
187
187
187
187
187
187
187
187
187
187
187
187
187
187
185
185
185
195
169
46
14
34
34
30
30
30
34
40
40
52
57
62
62
71
95
158
202
242
138
138
138
138
138
138
138
138
138
138
138
138
138
138
138
138
138
138
138
138
138
138
138
138
138
138
138
253
235
203
151
119
113
108
103
97
90
84
79
76
76
74
69
69
62
24
57
181
201
191
193
193
191
188
191
191
190
190
190
188
188
188
188
188
188
188
187
188
188
187
188
188
188
188
188
187
187
187
193
193
100
12
30
34
30
24
24
30
34
40
46
57
62
67
69
82
116
181
235
254
138
138
138
138
138
138
138
138
138
138
138
138
138
138
138
138
138
138
138
138
138
138
138
138
138
138
138
138
250
213
168
131
123
113
108
103
97
90
84
79
76
74
71
71
69
57
24
100
197
197
193
191
191
191
191
191
191
191
190
191
189
191
191
191
191
191
191
190
188
188
188
191
191
191
188
191
187
187
199
157
34
24
34
24
24
24
30
30
34
46
52
57
62
69
82
97
138
213
252
138
138
138
138
138
138
138
138
138
138
138
138
138
138
138
138
138
138
138
138
138
138
138
138
138
138
138
138
138
254
238
181
152
136
124
116
108
103
97
90
84
79
76
76
76
71
71
50
34
141
204
196
193
193
191
193
193
193
193
191
191
191
191
191
191
191
191
191
191
191
191
191
189
189
191
191
191
190
195
183
76
24
34
24
24
24
24
30
34
40
50
57
62
71
82
100
121
183
243
138
138
138
138
138
138
138
138
138
138
138
138
138
138
138
138
138
138
138
138
138
138
138
138
138
138
138
138
138
138
138
254
238
188
151
136
131
119
111
103
97
90
87
82
79
76
74
74
69
40
57
170
205
195
195
193
193
193
193
193
193
193
193
193
193
193
193
193
191
191
191
191
191
193
191
191
191
190
193
193
119
30
34
24
18
18
24
24
34
40
46
50
62
71
87
100
121
172
242
138
138
138
138
138
138
138
138
138
138
138
138
138
138
138
138
138
138
138
138
138
138
138
138
138
138
138
138
138
138
138
138
138
254
237
183
152
141
131
119
113
107
100
92
87
82
82
79
76
74
62
34
84
191
203
195
195
195
196
195
193
193
193
193
193
193
193
193
193
191
191
191
191
193
193
193
193
191
191
199
155
46
30
24
15
18
18
24
24
34
46
50
62
71
87
103
121
164
236
138
138
138
138
138
138
138
138
138
138
138
138
138
138
138
138
138
138
138
138
138
138
138
138
138
138
138
138
138
138
138
138
138
138
138
253
235
185
156
141
129
121
116
107
100
92
87
84
82
79
76
74
57
34
124
207
201
197
197
196
195
195
196
196
196
195
195
195
193
193
193
193
195
193
193
193
195
193
193
199
181
79
24
30
15
18
18
18
24
30
40
52
62
76
90
108
121
162
236
254
138
138
138
138
138
138
138
138
138
138
138
138
138
138
138
138
138
138
138
138
138
138
138
138
138
138
138
138
138
138
138
138
138
138
138
138
254
234
188
160
141
131
124
116
108
100
95
90
84
82
79
79
76
50
46
152
209
200
197
199
197
197
199
197
198
197
197
196
196
195
195
195
195
195
195
195
196
196
201
196
111
30
30
18
18
18
18
24
30
34
52
62
76
95
108
129
162
235
254
138
138
138
138
138
138
138
138
138
138
138
138
138
138
138
138
138
138
138
138
138
138
138
138
138
138
138
138
138
138
138
138
138
138
138
138
138
138
254
242
199
165
147
136
129
119
111
100
95
90
87
84
82
82
76
40
57
172
211
201
200
200
200
200
200
199
199
198
197
197
197
196
196
196
196
196
197
196
201
201
127
40
30
18
18
15
18
24
30
40
57
71
87
100
119
136
178
240
254
138
138
138
138
138
138
138
138
138
138
138
138
138
138
138
138
138
138
138
138
138
138
138
138
138
138
138
138
138
138
138
138
138
138
138
138
138
138
138
138
254
245
209
172
152
141
131
121
111
103
97
92
87
84
82
82
71
40
76
188
211
203
201
201
201
200
199
198
198
199
197
199
197
197
197
199
199
197
200
199
134
46
34
30
18
18
18
24
34
46
62
79
95
113
124
147
191
243
254
138
138
138
138
138
138
138
138
138
138
138
138
138
138
138
138
138
138
138
138
138
138
138
138
138
138
138
138
138
138
138
138
138
138
138
138
138
138
138
138
138
138
138
250
223
185
162
147
131
124
113
108
100
92
87
84
82
76
71
46
79
180
209
207
204
205
203
201
201
201
201
200
200
199
197
199
199
199
197
188
123
52
46
34
18
18
14
24
40
50
69
87
103
121
141
164
215
247
138
138
138
138
138
138
138
138
138
138
138
138
138
138
138
138
138
138
138
138
138
138
138
138
138
138
138
138
138
138
138
138
138
138
138
138
138
138
138
138
138
138
138
138
138
138
253
240
210
172
147
136
124
116
108
100
92
84
82
79
74
57
57
144
191
196
197
199
199
200
201
200
197
199
197
196
193
195
191
188
183
164
95
52
34
18
15
14
18
40
62
76
92
111
129
156
190
230
252
138
138
138
138
138
138
138
138
138
138
138
138
138
138
138
138
138
138
138
138
138
138
138
138
138
138
138
138
138
138
138
138
138
138
138
138
138
138
138
138
138
138
138
138
138
138
138
138
138
249
231
188
156
136
124
116
108
100
95
87
79
69
95
154
183
185
185
187
187
188
188
189
189
188
188
189
185
185
185
187
183
183
183
173
127
67
18
12
24
46
67
87
108
124
145
172
215
248
254
138
138
138
138
138
138
138
138
138
138
138
138
138
138
138
138
138
138
138
138
138
138
138
138
138
138
138
138
138
138
138
138
138
138
138
138
138
138
138
138
138
138
138
138
138
138
138
138
138
138
138
254
246
221
178
147
131
121
111
107
100
108
134
179
204
205
205
204
203
201
200
199
199
197
199
199
196
195
195
195
196
195
197
197
196
193
169
123
76
57
71
100
124
147
168
204
240
252
138
138
138
138
138
138
138
138
138
138
138
138
138
138
138
138
138
138
138
138
138
138
138
138
138
138
138
138
138
138
138
138
138
138
138
138
138
138
138
138
138
138
138
138
138
138
138
138
138
138
138
138
138
138
138
253
243
210
172
156
144
141
156
181
203
213
212
210
210
207
206
206
204
204
203
203
203
203
201
201
200
200
199
199
197
195
195
199
199
196
175
141
124
136
168
191
230
248
138
138
138
138
138
138
138
138
138
138
138
138
138
138
138
138
138
138
138
138
138
138
138
138
138
138
138
138
138
138
138
138
138
138
138
138
138
138
138
138
138
138
138
138
138
138
138
138
138
138
138
138
138
138
138
138
138
138
138
252
238
209
200
201
210
217
215
209
206
205
203
201
200
202
201
200
199
200
198
199
199
197
197
197
197
197
195
195
195
195
195
199
201
197
188
183
210
243
254
138
138
138
138
138
138
138
138
138
138
138
138
138
138
138
138
138
138
138
138
138
138
138
138
138
138
138
138
138
138
138
138
138
138
138
138
138
138
138
138
138
138
138
138
138
138
138
138
138
138
138
138
138
138
138
138
138
138
138
138
138
254
248
234
206
198
195
197
197
199
200
199
200
200
199
199
199
197
197
197
197
199
197
196
197
196
195
195
193
193
191
188
183
181
181
195
231
249
138
138
138
138
138
138
138
138
138
138
138
138
138
138
138
138
138
138
138
138
138
138
138
138
138
138
138
138
138
138
138
138
138
138
138
138
138
138
138
138
138
138
138
138
138
138
138
138
138
138
138
138
138
138
138
138
138
138
138
138
138
138
138
138
138
253
238
221
202
189
185
188
191
193
196
196
197
199
199
197
196
196
195
195
193
193
191
191
188
187
183
179
173
173
177
199
221
243
254
138
138
138
138
138
138
138
138
138
138
138
138
138
138
138
138
138
138
138
138
138
138
138
138
138
138
138
138
138
138
138
138
138
138
138
138
138
138
138
138
138
138
138
138
138
138
138
138
138
138
138
138
138
138
138
138
138
138
138
138
138
138
138
138
138
138
138
138
254
248
238
226
210
190
181
183
180
180
181
181
185
183
183
181
181
177
177
177
177
172
172
170
175
196
218
234
250
138
138
138
138
138
138
138
138
138
138
138
138
138
138
138
138
138
138
138
138
138
138
138
138
138
138
138
138
138
138
138
138
138
138
138
138
138
138
138
138
138
138
138
138
138
138
138
138
138
138
138
138
138
138
138
138
138
138
138
138
138
138
138
138
138
138
138
138
138
138
138
138
138
138
254
250
243
240
225
217
209
198
197
200
204
212
219
221
225
226
221
219
221
227
237
247
247
254
138
138
138
138
138
138
138
138
138
138
138
138
138
138
138
138
138
138
138
138
138
138
138
138
138
138
138
138
138
138
138
138
138
138
138
138
138
138
138
138
138
138
138
138
138
138
138
138
138
138
138
138
138
138
138
138
138
138
138
138
138
138
138
138
138
138
138
138
138
138
138
138
138
138
138
138
138
138
138
138
254
253
252
252
252
252
252
252
253
253
254
254
254
254
254
254
138
138
138
138
138
138
138
138
138
138
138
138
138
138
138
138
138
138
138
138
138
138
138
138
138
138
138
138
138
138
138
138
138
138
138
138
138
138
138
138
138
138
138
138
138
138
138
138
138
138
138
138
138
138
138
138
138
138
138
138
138
138
138
138
138
138
138
138
138
138
138
138
138
138
138
138
138
138
138
138
138
138
138
138
138
138
138
138
138
138
138
138
138
138
138
138
138
138
138
138
138
138
138
138
138
138
138
138
138
138
138
138
138
138
138
138
138
138
138
138
138
138
138
138
138
138
138
138
138
138
138
138
138
138
138
138
138
138
138
138
138
138
138
138
138
138
138
138
138
138
138
138
138
138
138
138
138
138
138
138
138
138
138
138
138
138
138
138
138
138
138
138
138
138
138
138
138
138
138
138
138
138
138
138
138
138
138
138
138
138
138
138
138
138
138
138
138
138
138
138
138
138
138
138
138
138
138
138
138
138
138
138
138
138
138
138
138
138
138
138
138
138
138
138
138
138
138
138
138
138
138
138
138
138
138
138
138
138
138
138
138
